<svg width="16" height="16" viewBox="0 0 16 16" fill="none" xmlns="http://www.w3.org/2000/svg">
<g clip-path="url(#clip0_48_1511)">
<path d="M1.77512 7.3967C1.46266 7.39757 1.15684 7.48631 0.893035 7.65266C0.629228 7.819 0.418216 8.05615 0.284411 8.33668C0.150606 8.6172 0.099476 8.92963 0.136937 9.23782C0.174398 9.54601 0.298918 9.83736 0.496093 10.0782L4.69939 15.1938C4.84926 15.3787 5.04136 15.5254 5.25975 15.6217C5.47814 15.718 5.71651 15.7611 5.95505 15.7476C6.46524 15.7203 6.92585 15.4492 7.21952 15.0034L15.9508 1.03279C15.9523 1.03047 15.9538 1.02815 15.9553 1.02587C16.0372 0.900897 16.0106 0.653233 15.8415 0.497648C15.7951 0.454923 15.7403 0.422097 15.6806 0.401194C15.6209 0.380291 15.5575 0.371753 15.4944 0.376104C15.4312 0.380456 15.3697 0.397607 15.3134 0.426499C15.2572 0.455392 15.2075 0.495414 15.1674 0.544102C15.1643 0.54793 15.1611 0.551701 15.1578 0.555413L6.35212 10.4399C6.31862 10.4776 6.27792 10.5082 6.2324 10.53C6.18688 10.5519 6.13744 10.5646 6.08696 10.5673C6.03648 10.57 5.98595 10.5627 5.93832 10.5458C5.8907 10.529 5.84691 10.5029 5.80952 10.4691L2.88709 7.82693C2.58357 7.5505 2.18687 7.39701 1.77512 7.3967Z" fill="#2E3F99"/>
</g>
<defs>
<clipPath id="clip0_48_1511">
<rect width="16" height="16" fill="white"/>
</clipPath>
</defs>
</svg>
