<svg width="42" height="42" viewBox="0 0 42 42" fill="none" xmlns="http://www.w3.org/2000/svg">
<circle cx="20.7589" cy="21.4561" r="20.544" fill="white"/>
<g clip-path="url(#clip0_275_9709)">
<path d="M30.8666 23.9283C31.3193 23.9283 31.6862 23.5614 31.6862 23.1087V17.7815C31.6862 15.9739 30.2156 14.5032 28.4079 14.5032H27.1638C26.8128 14.5032 26.501 14.28 26.3879 13.9477L26.1399 13.2192C25.8006 12.2225 24.8652 11.5527 23.8123 11.5527H18.5764C17.5439 11.5527 16.6145 12.2052 16.2639 13.1764L15.9802 13.962C15.8633 14.2857 15.5535 14.5032 15.2093 14.5032H13.9834C12.1757 14.5032 10.7051 15.9739 10.7051 17.7815V27.2066C10.7051 29.0143 12.1757 30.4849 13.9834 30.4849H28.4079C30.2156 30.4849 31.6862 29.0143 31.6862 27.2066C31.6862 26.754 31.3193 26.3871 30.8666 26.3871C30.414 26.3871 30.0471 26.754 30.0471 27.2066C30.0471 28.1105 29.3117 28.8458 28.4079 28.8458H13.9834C13.0796 28.8458 12.3442 28.1105 12.3442 27.2066V17.7815C12.3442 16.8777 13.0796 16.1424 13.9834 16.1424H15.2093C16.2418 16.1424 17.1712 15.4899 17.5219 14.5187L17.8056 13.7331C17.9225 13.4094 18.2322 13.1919 18.5764 13.1919H23.8123C24.1633 13.1919 24.4751 13.4151 24.5882 13.7474L24.8362 14.4759C25.1754 15.4726 26.1108 16.1424 27.1638 16.1424H28.4079C29.3117 16.1424 30.0471 16.8777 30.0471 17.7815V23.1087C30.0471 23.5614 30.414 23.9283 30.8666 23.9283Z" fill="#777AAE"/>
<path d="M21.2376 16.9619C18.4131 16.9619 16.1152 19.2598 16.1152 22.0843C16.1152 24.9087 18.4131 27.2066 21.2376 27.2066C24.062 27.2066 26.3599 24.9087 26.3599 22.0843C26.3599 19.2598 24.062 16.9619 21.2376 16.9619ZM21.2376 25.5675C19.3169 25.5675 17.7544 24.0049 17.7544 22.0843C17.7544 20.1636 19.3169 18.6011 21.2376 18.6011C23.1582 18.6011 24.7208 20.1636 24.7208 22.0843C24.7208 24.0049 23.1582 25.5675 21.2376 25.5675Z" fill="#777AAE"/>
</g>
<defs>
<clipPath id="clip0_275_9709">
<rect width="20.9811" height="20.9811" fill="white" transform="translate(10.7051 10.5283)"/>
</clipPath>
</defs>
</svg>
