<svg width="30" height="31" viewBox="0 0 30 31" fill="none" xmlns="http://www.w3.org/2000/svg">
<g clip-path="url(#clip0_1119_9355)">
<path fill-rule="evenodd" clip-rule="evenodd" d="M7.68483 0H17.7148L26.2156 9.15593V26.9643C26.2156 29.1952 24.4689 31 22.3175 31H7.68483C5.52592 31 3.7793 29.1952 3.7793 26.9643V4.03572C3.77926 1.80484 5.52588 0 7.68483 0Z" fill="#E5252A"/>
<path opacity="0.302" fill-rule="evenodd" clip-rule="evenodd" d="M18 0V9.08621H26.5083L18 0Z" fill="white"/>
<path d="M8.11914 23.1299V17.4675H10.4505C11.0277 17.4675 11.485 17.6302 11.8298 17.9633C12.1746 18.2886 12.3471 18.7301 12.3471 19.2801C12.3471 19.8301 12.1746 20.2716 11.8298 20.5969C11.485 20.93 11.0277 21.0927 10.4505 21.0927H9.52094V23.1299H8.11914ZM9.52094 19.8611H10.2931C10.5029 19.8611 10.6679 19.8146 10.7803 19.7062C10.8928 19.6055 10.9528 19.466 10.9528 19.2801C10.9528 19.0943 10.8928 18.9548 10.7803 18.8541C10.6679 18.7457 10.503 18.6992 10.2931 18.6992H9.52094V19.8611ZM12.9242 23.1299V17.4675H14.8658C15.2481 17.4675 15.6079 17.5217 15.9452 17.6379C16.2825 17.7541 16.5899 17.9168 16.8597 18.1414C17.1296 18.3583 17.347 18.6527 17.5044 19.0245C17.6544 19.3963 17.7368 19.8224 17.7368 20.3026C17.7368 20.7751 17.6544 21.2012 17.5044 21.5729C17.347 21.9448 17.1296 22.2391 16.8597 22.456C16.5899 22.6806 16.2825 22.8433 15.9452 22.9595C15.6079 23.0757 15.2481 23.1299 14.8658 23.1299H12.9242ZM14.2961 21.8983H14.7008C14.9182 21.8983 15.1206 21.8751 15.308 21.8208C15.4879 21.7666 15.6604 21.6814 15.8253 21.5652C15.9827 21.4491 16.1101 21.2863 16.2001 21.0695C16.29 20.8526 16.335 20.5969 16.335 20.3026C16.335 20.0005 16.29 19.7449 16.2001 19.528C16.1101 19.3111 15.9827 19.1485 15.8253 19.0322C15.6604 18.9161 15.488 18.8308 15.308 18.7766C15.1206 18.7224 14.9182 18.6992 14.7008 18.6992H14.2961V21.8983ZM18.4415 23.1299V17.4675H22.3395V18.6992H19.8433V19.6054H21.8373V20.8293H19.8433V23.1299H18.4415Z" fill="white"/>
</g>
<defs>
<clipPath id="clip0_1119_9355">
<rect width="30" height="31" fill="white"/>
</clipPath>
</defs>
</svg>
