<svg width="40" height="40" viewBox="0 0 40 40" fill="none" xmlns="http://www.w3.org/2000/svg">
<path d="M10.7375 14.6361H14.7856V26.6447C14.7856 27.863 15.7735 28.8497 16.9906 28.8497H23.0092C24.2263 28.8497 25.2142 27.8631 25.2142 26.6447V14.6361H29.2609C29.9313 14.6361 30.5339 14.2324 30.7917 13.6129C31.0468 12.9959 30.9049 12.2826 30.4312 11.809L21.17 2.54661C20.5232 1.90109 19.4753 1.90109 18.8271 2.54661L9.56739 11.809C9.09364 12.2826 8.95169 12.9947 9.20818 13.6129C9.4658 14.2312 10.0671 14.6361 10.7375 14.6361Z" fill="#BDBEDC"/>
<path d="M38.0111 19.1369C36.9137 19.1369 36.0235 20.0273 36.0235 21.1258V29.4419C36.0235 31.9331 33.9955 33.9597 31.5042 33.9597H8.4956C6.0043 33.9597 3.9777 31.9331 3.9777 29.4419V21.1258C3.9777 20.0273 3.08612 19.1369 1.98885 19.1369C0.890273 19.1369 0 20.0273 0 21.1259V29.442C0 34.1263 3.81106 37.9376 8.4956 37.9376H31.5042C36.1888 37.9376 40 34.1264 40 29.442V21.1259C40 20.0273 39.1096 19.1369 38.0111 19.1369Z" fill="#BDBEDC"/>
</svg>
